# xmcd
#
# Track frame offsets:
#	180
#	21891
#	42958
#	56095
#	77211
#	90960
#	106432
#	116685
#	136558
#	153088
#	174439
#	190783
#	215593
#	235616
#	258626
#	274487
#
# Disc length: 3931 seconds
#
# Revision: 1
# Processed by: cddbd v1.5.1PL2 Copyright (c) Steve Scherf et al.
# Submitted via: audiograbber 1.83.01
#
DISCID=d30f5910
DTITLE=Colorado Five - Wölfe
DYEAR=1996
DGENRE=Country
TTITLE0=Graue Wölfe
TTITLE1=Familientradition
TTITLE2=Cowboyhimmel
TTITLE3=Nimm es leicht
TTITLE4=Country Boy
TTITLE5=Wir werden älter
TTITLE6=Colorado River
TTITLE7=Hart
TTITLE8=Reservation
TTITLE9=Federleicht
TTITLE10=Tschadahutschie
TTITLE11=Wie ein Felsen
TTITLE12=Millionen
TTITLE13=Pancho Villa
TTITLE14=Freunde
TTITLE15=Lagerfeuer brennen
EXTD=Recorded and mixed at Polysound Tonstudio Kassel for Astro Musik 1996.\nBe
EXTD=st.-Nr. NF 12120-CD
EXTT0=
EXTT1=
EXTT2=
EXTT3=
EXTT4=
EXTT5=
EXTT6=
EXTT7=
EXTT8=
EXTT9=
EXTT10=
EXTT11=
EXTT12=
EXTT13=
EXTT14=
EXTT15=
PLAYORDER=
